<svg xmlns="http://www.w3.org/2000/svg" width="24" height="24" viewBox="0 0 24 24">
    <g fill="none" fill-rule="evenodd">
        <g fill="#F57059" fill-rule="nonzero">
            <g>
                <path d="M20.483 3.517c-4.688-4.689-12.277-4.69-16.966 0-4.689 4.688-4.69 12.277 0 16.966 4.688 4.689 12.277 4.69 16.966 0 4.689-4.688 4.69-12.277 0-16.966zM16.505 16.99h-3.52v1.016c0 .545-.44.986-.985.986-.544 0-.985-.441-.985-.986V16.99h-3.52c-.732 0-1.208-.773-.881-1.426 1.33-2.66 1.397-3.317 1.397-5.566 0-2.2 1.79-3.989 3.989-3.989 2.2 0 3.989 1.79 3.989 3.989 0 2.22.058 2.886 1.397 5.566.328.655-.15 1.426-.881 1.426z" transform="translate(-512 -603) translate(512 603)"/>
            </g>
        </g>
    </g>
</svg>
