<svg xmlns="http://www.w3.org/2000/svg" width="18" height="18" viewBox="0 0 18 18">
    <g fill="#FFF" fill-rule="nonzero" transform="translate(1 1)">
        <path stroke="#474747" stroke-width=".5" d="M13.169 0H2.639A2.651 2.651 0 0 0 0 2.648v6.945a2.651 2.651 0 0 0 2.639 2.648h2.44v3.565l4.397-3.565h3.692a2.651 2.651 0 0 0 2.638-2.648V2.648A2.65 2.65 0 0 0 13.17 0zm.99 9.592c0 .539-.454.994-.99.994H8.893l-.454.367-1.712 1.388v-1.756H2.639c-.537 0-.99-.455-.99-.993V2.648c0-.538.453-.993.99-.993h10.53c.536 0 .99.455.99.993v6.944z"/>
        <circle cx="4.516" cy="5.871" r="1"/>
        <circle cx="7.677" cy="5.871" r="1"/>
        <circle cx="11.29" cy="5.871" r="1"/>
    </g>
</svg>
