<svg xmlns="http://www.w3.org/2000/svg" width="20" height="15" viewBox="0 0 20 15">
    <path fill="rgb(0, 145, 218)" fill-rule="nonzero" d="M15.604 14.81h-4.285v-4.402h1.416a.45.45 0 0 0 .36-.713L10.34 5.82a.435.435 0 0 0-.714 0L6.872 9.695a.45.45 0 0 0 .359.713h1.416v4.402H3.848C1.706 14.69 0 12.652 0 10.445c0-1.522.812-2.85 2.016-3.567a2.812 2.812 0 0 1-.168-.967c0-1.556 1.237-2.813 2.767-2.813.33 0 .649.058.947.17C6.447 1.36 8.357.036 10.577.036c2.872.005 5.239 2.24 5.508 5.09 2.208.387 3.885 2.465 3.885 4.817 0 2.515-1.926 4.693-4.366 4.867z"/>
</svg>
