<?xml version="1.0" encoding="UTF-8"?>
<svg width="22px" height="22px" viewBox="0 0 22 22" version="1.1" xmlns="http://www.w3.org/2000/svg" xmlns:xlink="http://www.w3.org/1999/xlink">
    <title>ic/cash scheme_white</title>
    <g id="Page-1" stroke="none" stroke-width="1" fill="none" fill-rule="evenodd">
        <g id="Group" transform="translate(-1.000000, -1.000000)" fill-rule="nonzero">
            <g>
                <path d="M19.0710937,4.92890625 C17.1823438,3.04015625 14.6710938,2 12,2 C9.32890625,2 6.81765625,3.04015625 4.92890625,4.92890625 C3.04019531,6.81765625 2,9.32890625 2,12 C2,14.6710938 3.04019531,17.1823438 4.92890625,19.0710937 C6.81765625,20.9598438 9.32890625,22 12,22 C14.6710938,22 17.1823438,20.9598438 19.0710937,19.0710937 C20.9598047,17.1823438 22,14.6710938 22,12 C22,9.32890625 20.9598047,6.81765625 19.0710937,4.92890625 Z" id="Shape" stroke="#FFFFFF" stroke-width="0.5" fill="#FFFFFF"></path>
                <path d="M12.6276172,11.4140625 L11.3723828,11.4140625 C10.6572656,11.4140625 10.0755078,10.8323047 10.0755078,10.1172266 C10.0755078,9.40210938 10.6573047,8.82035156 11.3723828,8.82035156 L13.8828125,8.82035156 C14.2064062,8.82035156 14.46875,8.55800781 14.46875,8.23441406 C14.46875,7.91082031 14.2064062,7.64847656 13.8828125,7.64847656 L12.5859375,7.64847656 L12.5859375,6.35160156 C12.5859375,6.02800781 12.3235937,5.76566406 12,5.76566406 C11.6764062,5.76566406 11.4140625,6.02800781 11.4140625,6.35160156 L11.4140625,7.64847656 L11.3724219,7.64847656 C10.0111328,7.64847656 8.90367187,8.75597656 8.90367187,10.1172266 C8.90367187,11.4784766 10.0111719,12.5859375 11.3724219,12.5859375 L12.6276562,12.5859375 C13.3427344,12.5859375 13.9244922,13.1677344 13.9244922,13.8828125 C13.9244922,14.5978906 13.3427344,15.1796875 12.6276562,15.1796875 L10.1172266,15.1796875 C9.79363281,15.1796875 9.53128906,15.4420313 9.53128906,15.765625 C9.53128906,16.0892188 9.79363281,16.3515625 10.1172266,16.3515625 L11.4140625,16.3515625 L11.4140625,17.6484766 C11.4140625,17.9720703 11.6764062,18.2344141 12,18.2344141 C12.3235937,18.2344141 12.5859375,17.9720703 12.5859375,17.6484766 L12.5859375,16.3515625 L12.6276172,16.3515625 C13.9888672,16.3515625 15.0963281,15.2440625 15.0963281,13.8828125 C15.0963281,12.5215625 13.9888672,11.4140625 12.6276172,11.4140625 Z" id="Path" stroke="#0091DA" stroke-width="0.75" fill="#0091DA"></path>
            </g>
        </g>
    </g>
</svg>