<svg xmlns="http://www.w3.org/2000/svg" width="48" height="48" viewBox="0 0 48 48">
    <g fill="none" fill-rule="nonzero">
        <path fill="#1D1D26" d="M11.064 22H.936a.945.945 0 0 0-.936.961V47.04c0 .534.416.961.936.961h10.128c.52 0 .936-.427.936-.961V22.96a.945.945 0 0 0-.936-.961zm-.936 24.078H1.872V23.922h8.265v22.156h-.01z"/>
        <path fill="rgb(0, 145, 218)" d="M29.065 0h-10.13c-.52 0-.935.435-.935.979V47.02c0 .544.416.979.935.979h10.13c.52 0 .935-.435.935-.979V.98C30 .445 29.584 0 29.065 0zm-.936 46.052h-8.258V1.958h8.258v44.094z"/>
        <path fill="#1D1D26" d="M47.064 48c.52 0 .936-.433.936-.975v-31.05c0-.542-.416-.975-.936-.975H36.936c-.52 0-.936.433-.936.975v31.04c0 .542.416.975.936.975h10.128V48zm-9.192-31.05h8.265v29.1h-8.265v-29.1z"/>
    </g>
</svg>
