<svg xmlns="http://www.w3.org/2000/svg" width="55" height="56" viewBox="0 0 55 56">
    <defs>
        <filter id="a" width="114.5%" height="155.6%" x="-7.2%" y="-22.2%" filterUnits="objectBoundingBox">
            <feOffset dy="4" in="SourceAlpha" result="shadowOffsetOuter1"/>
            <feGaussianBlur in="shadowOffsetOuter1" result="shadowBlurOuter1" stdDeviation="6"/>
            <feColorMatrix in="shadowBlurOuter1" result="shadowMatrixOuter1" values="0 0 0 0 0 0 0 0 0 0 0 0 0 0 0 0 0 0 0.2 0"/>
            <feMerge>
                <feMergeNode in="shadowMatrixOuter1"/>
                <feMergeNode in="SourceGraphic"/>
            </feMerge>
        </filter>
    </defs>
    <g fill="none" fill-rule="evenodd" filter="url(#a)" transform="translate(-33 -12)">
        <path fill="#1D1D26" stroke="#1D1D26" stroke-width=".4" d="M68.454 43.485a.74.74 0 0 0-.74.739v6.313h-12.62v-2.733a.754.754 0 0 0-.252-.557.74.74 0 0 0-.587-.17l-3.382.504a1.778 1.778 0 0 1-1.724-1.767V41.41a.732.732 0 0 0-.736-.735H47.27c-.365 0-.64-.104-.744-.267-.104-.171-.067-.46.104-.78l2.43-4.634a.771.771 0 0 0 .082-.342v-1.99c0-4.33 2.542-8.302 6.474-10.13a11.087 11.087 0 0 1 4.28-1.061.738.738 0 0 0 .707-.765.733.733 0 0 0-.766-.705 12.552 12.552 0 0 0-4.845 1.195c-4.445 2.072-7.314 6.572-7.314 11.466v1.797l-2.348 4.478c-.416.795-.439 1.604-.06 2.228.38.624 1.108.98 2 .98h.408v3.662a3.242 3.242 0 0 0 3.24 3.237c.038 0 .075 0 .112-.007l2.594-.386v2.614c0 .408.327.735.736.735h14.099a.732.732 0 0 0 .736-.735v-7.041a.74.74 0 0 0-.74-.74"/>
        <path fill="rgb(0, 145, 218)" fill-rule="nonzero" stroke="rgb(0, 145, 218)" stroke-width=".7" d="M61.468 26.185a7.081 7.081 0 0 0 1.75 5.65c1.2 1.314 1.856 3.071 1.856 4.88l-.005 2.851c0 1.152.929 2.083 2.078 2.083h2.677a2.078 2.078 0 0 0 2.078-2.083l.005-2.85c0-1.863.6-3.567 1.749-4.771a6.866 6.866 0 0 0 1.913-4.77c-.005-3.898-3.231-7.022-7.11-7.022-3.805 0-6.555 2.908-6.99 6.032zm8.407 14.37h-2.677a.98.98 0 0 1-.985-.989v-1.262h4.642v1.262a.976.976 0 0 1-.98.989zm3.017-9.378c-1.365 1.425-2.078 3.398-2.078 5.538v.495h-4.642v-.495c0-2.03-.82-4.055-2.185-5.59-1.2-1.316-1.693-3.014-1.478-4.771.385-2.63 2.77-5.102 5.956-5.102 3.334 0 6.012 2.688 6.012 5.922a5.809 5.809 0 0 1-1.585 4.003z"/>
    </g>
</svg>
