<svg xmlns="http://www.w3.org/2000/svg" width="69" height="48" viewBox="0 0 69 48">
    <g fill="none" fill-rule="evenodd">
        <path fill="rgb(0, 145, 218)" fill-rule="nonzero" d="M1.417 32.919c3.143-2.56 6.526-4.395 7.886-5.085v-4.406a3.65 3.65 0 0 1-1.154-2.662v-5.674c0-3.443 2.822-6.24 6.297-6.24h1.234c3.474 0 6.297 2.797 6.297 6.24v5.674a3.65 3.65 0 0 1-1.154 2.662v3.941c0 .623-.503 1.121-1.132 1.121a1.122 1.122 0 0 1-1.131-1.12v-4.475c0-.373.194-.724.503-.928.411-.272.651-.714.651-1.2v-5.675c0-2.197-1.805-3.998-4.034-3.998h-1.234c-2.217 0-4.035 1.79-4.035 3.998v5.674c0 .487.24.929.652 1.2.32.205.503.556.503.93v5.481c0 .521-.309 1.008-.777 1.235-.72.35-4.469 2.231-7.932 5.04-.377.306-.594.77-.594 1.257v3.896c0 .623-.503 1.121-1.132 1.121A1.122 1.122 0 0 1 0 39.806v-3.897c0-1.167.514-2.254 1.417-2.99z"/>
        <path fill="#1D1D26" d="M29.203 24.54v-6.069a4.395 4.395 0 0 1-1.515-3.32V7.765c0-4.286 3.55-7.764 7.911-7.764h1.62c4.36 0 7.911 3.49 7.911 7.775v7.377a4.413 4.413 0 0 1-1.515 3.319v6.07c1.167.586 4.704 2.807 4.746 2.835.266.207.436.527.436.886 0 .624-.515 1.13-1.15 1.13-.228 0-.439-.065-.617-.176-.022-.015-4.173-2.538-4.884-2.88a1.459 1.459 0 0 1-.833-1.306v-7.116c0-.375.197-.727.509-.932a2.191 2.191 0 0 0 1.006-1.83V7.764c0-3.047-2.521-5.525-5.621-5.525h-1.62c-3.1 0-5.62 2.478-5.62 5.525v7.377c0 .738.37 1.42 1.006 1.83.323.204.508.557.508.932v7.115a1.416 1.416 0 0 1-.82 1.307c-.95.455-5.9 2.91-10.457 6.593a2.417 2.417 0 0 0-.902 1.887v3.933h25.611c.636 0 1.15.506 1.15 1.131A1.14 1.14 0 0 1 44.914 41H18.145A1.13 1.13 0 0 1 17 39.875v-5.059c0-1.409.636-2.739 1.747-3.626 4.256-3.432 8.825-5.842 10.456-6.65z"/>
        <path fill="rgb(0, 145, 218)" fill-rule="nonzero" d="M58.5 27C64.293 27 69 31.707 69 37.5S64.293 48 58.5 48 48 43.293 48 37.5C48 31.718 52.707 27 58.5 27zm0 18.772c4.561 0 8.272-3.71 8.272-8.272 0-4.561-3.71-8.272-8.272-8.272-4.561 0-8.272 3.71-8.272 8.272 0 4.561 3.71 8.272 8.272 8.272z"/>
        <path fill="rgb(0, 145, 218)" fill-rule="nonzero" stroke="rgb(0, 145, 218)" stroke-width=".3" d="M54.789 36.711h2.922V33.79c0-.432.358-.789.789-.789.431 0 .789.357.789.789v2.922h2.922c.432 0 .789.358.789.789a.794.794 0 0 1-.789.789H59.29v2.922A.794.794 0 0 1 58.5 42a.794.794 0 0 1-.789-.789V38.29H54.79A.794.794 0 0 1 54 37.5c0-.431.357-.789.789-.789z"/>
    </g>
</svg>
