<svg xmlns="http://www.w3.org/2000/svg" width="68" height="42" viewBox="0 0 68 42">
    <defs>
        <linearGradient id="a" x1="0%" y1="-5.816%" y2="-5.816%">
            <stop offset="0%" stop-color="#5EEC2C"/>
            <stop offset="100%" stop-color="#F42931"/>
        </linearGradient>
    </defs>
    <g fill="none" fill-rule="evenodd">
        <path stroke="url(#a)" stroke-linecap="round" stroke-width="4" d="M48.403 32.914A23.71 23.71 0 0 0 50 24.336C50 10.896 38.807 0 25 0S0 10.896 0 24.336c0 3.01.562 5.893 1.588 8.555" transform="translate(2 2)"/>
        <path fill="#1D1D26" d="M24.852 24.871l-1.23-12.36a.82.82 0 0 1 1.61-.284l3.072 12.036c1.557.39 2.813 1.642 3.105 3.3.4 2.264-1.146 4.428-3.45 4.835-2.305.406-4.497-1.1-4.897-3.363-.292-1.659.46-3.264 1.79-4.164zm2.759 5.556c1.197-.21 1.999-1.334 1.792-2.51-.208-1.175-1.346-1.956-2.542-1.745-1.197.21-2 1.335-1.792 2.51.207 1.175 1.345 1.956 2.542 1.745z"/>
        <g fill-rule="nonzero">
            <path fill="#FFF" d="M67.55 37.248L53.192 13.516A3.163 3.163 0 0 0 50.5 12c-1.095 0-2.127.58-2.693 1.516L33.451 37.248a3.13 3.13 0 0 0-.045 3.16A3.15 3.15 0 0 0 36.144 42h28.712c1.132 0 2.182-.61 2.738-1.593a3.13 3.13 0 0 0-.045-3.16z"/>
            <path fill="#D8232A" d="M64.54 35.965L52.717 16.401a2.605 2.605 0 0 0-2.217-1.25c-.902 0-1.752.48-2.218 1.25L36.46 35.965a2.583 2.583 0 0 0 2.217 3.918h23.646a2.582 2.582 0 1 0 2.217-3.918zm-1.596 1.684a.714.714 0 0 1-.621.361H38.677a.711.711 0 1 1-.61-1.078L49.89 17.368a.717.717 0 0 1 .61-.344c.248 0 .482.132.61.344l11.823 19.564a.71.71 0 0 1 .01.717z"/>
            <path fill="#D8232A" d="M50.509 22.855c-.714 0-1.271.383-1.271 1.06 0 2.067.243 5.038.243 7.105 0 .539.47.764 1.028.764.418 0 1.01-.225 1.01-.764 0-2.067.243-5.038.243-7.105 0-.677-.574-1.06-1.253-1.06zM50.526 32.983c-.766 0-1.34.608-1.34 1.338a1.34 1.34 0 0 0 1.34 1.337c.714 0 1.323-.625 1.323-1.337 0-.73-.609-1.338-1.323-1.338z"/>
        </g>
    </g>
</svg>
