<?xml version="1.0" encoding="UTF-8"?>
<svg width="54px" height="48px" viewBox="0 0 54 48" version="1.1" xmlns="http://www.w3.org/2000/svg" xmlns:xlink="http://www.w3.org/1999/xlink">
    <!-- Generator: sketchtool 49.3 (51167) - http://www.bohemiancoding.com/sketch -->
    <title>6CEF7630-1FA9-4A3A-A68A-12B685F1637B</title>
    <desc>Created with sketchtool.</desc>
    <defs></defs>
    <g id="Design" stroke="none" stroke-width="1" fill="none" fill-rule="evenodd">
        <g id="004_Login_ServiceMaintenance_01" transform="translate(-614.000000, -96.000000)" fill="#D8232A" fill-rule="nonzero">
            <g id="Group-10" transform="translate(280.000000, 56.000000)">
                <g id="danger" transform="translate(333.000000, 40.000000)">
                    <path d="M54.2087099,40.0128464 L32.139224,2.450133 C31.2697442,0.970345951 29.6836844,0.0510467156 27.9998949,0.0510467156 C26.3161054,0.0510467156 24.7300456,0.970345951 23.8604608,2.45024085 L1.79107996,40.0128464 C0.892491422,41.5423516 0.865904718,43.4586008 1.72161826,45.0137739 C2.57754197,46.5689469 4.19018842,47.5350523 5.93040901,47.5350523 L50.0693808,47.5350523 C51.8096014,47.5350523 53.4223529,46.5689469 54.2782767,45.013666 C55.1339902,43.4583851 55.1074035,41.5421359 54.2087099,40.0128464 Z M51.2280567,43.2459239 C50.9924544,43.673974 50.5484669,43.9400358 50.0693808,43.9400358 L5.93040901,43.9400358 C5.45132292,43.9400358 5.00733548,43.6740818 4.77183824,43.2460318 C4.53623591,42.8178739 4.54359191,42.2902798 4.79085876,41.8693477 L26.8604498,4.3066343 C27.0998352,3.89929112 27.5364666,3.64617107 28,3.64617107 C28.4634283,3.64617107 28.9000597,3.89929112 29.1394452,4.3066343 L51.208826,41.8693477 C51.456303,42.2903876 51.463659,42.8178739 51.2280567,43.2459239 Z" id="Shape"></path>
                    <path d="M28.0161832,14.8422306 C26.6836955,14.8422306 25.6437665,15.5760307 25.6437665,16.8768974 C25.6437665,20.8459319 26.0986829,26.5493834 26.0986829,30.5185258 C26.098788,31.5524678 26.9763594,31.9860182 28.0162883,31.9860182 C28.796235,31.9860182 29.901212,31.5524678 29.901212,30.5185258 C29.901212,26.5494913 30.3561284,20.8460398 30.3561284,16.8768974 C30.3561284,15.5761386 29.2837279,14.8422306 28.0161832,14.8422306 Z" id="Shape"></path>
                    <path d="M28.0488649,34.2873939 C26.6189626,34.2873939 25.546352,35.4547443 25.546352,36.8556942 C25.546352,38.2232111 26.6188575,39.4239945 28.0488649,39.4239945 C29.3813526,39.4239945 30.5189063,38.2232111 30.5189063,36.8556942 C30.5189063,35.4547443 29.3812475,34.2873939 28.0488649,34.2873939 Z" id="Shape"></path>
                </g>
            </g>
        </g>
    </g>
</svg>