<svg xmlns="http://www.w3.org/2000/svg" width="19" height="12" viewBox="0 0 19 12">
    <g fill="#1D1D26" fill-rule="nonzero" opacity=".8">
        <path d="M18.939 5.8C16.96 2.48 13.37.4 9.5.4S2.035 2.48.061 5.8a.358.358 0 0 0 0 .4C2.04 9.52 5.63 11.6 9.5 11.6s7.465-2.08 9.439-5.4a.358.358 0 0 0 0-.4zm-9.439 5C5.99 10.8 2.721 8.962.906 6A10.105 10.105 0 0 1 9.5 1.2c3.51 0 6.779 1.838 8.594 4.8A10.105 10.105 0 0 1 9.5 10.8z"/>
        <path d="M9.5 2C7.3 2 5.542 3.778 5.542 6S7.3 10 9.5 10c2.2 0 3.958-1.778 3.958-4S11.7 2 9.5 2zm0 7.111c-1.717 0-3.079-1.38-3.079-3.111 0-1.73 1.366-3.111 3.079-3.111S12.579 4.269 12.579 6c0 1.73-1.362 3.111-3.079 3.111z"/>
        <path d="M7.917 6c0 .884.709 1.6 1.583 1.6s1.583-.716 1.583-1.6c0-.884-.709-1.6-1.583-1.6a.398.398 0 0 0-.396.4c0 .22.177.4.396.4.437 0 .792.358.792.8 0 .442-.355.8-.792.8a.796.796 0 0 1-.792-.8c0-.22-.177-.4-.396-.4a.398.398 0 0 0-.395.4z"/>
    </g>
</svg>
