<svg xmlns="http://www.w3.org/2000/svg" width="19" height="16" viewBox="0 0 19 16">
    <g fill="none" fill-rule="evenodd" opacity=".8">
        <path fill="#1D1D26" fill-rule="nonzero" d="M18.939 7.8C16.96 4.48 13.37 2.4 9.5 2.4S2.035 4.48.061 7.8a.358.358 0 0 0 0 .4C2.04 11.52 5.63 13.6 9.5 13.6s7.465-2.08 9.439-5.4a.358.358 0 0 0 0-.4zm-9.439 5C5.99 12.8 2.721 10.962.906 8A10.105 10.105 0 0 1 9.5 3.2c3.51 0 6.779 1.838 8.594 4.8A10.105 10.105 0 0 1 9.5 12.8z"/>
        <path fill="#1D1D26" fill-rule="nonzero" d="M9.5 4C7.3 4 5.542 5.778 5.542 8S7.3 12 9.5 12c2.2 0 3.958-1.778 3.958-4S11.7 4 9.5 4zm0 7.111c-1.717 0-3.079-1.38-3.079-3.111 0-1.73 1.366-3.111 3.079-3.111S12.579 6.269 12.579 8c0 1.73-1.362 3.111-3.079 3.111z"/>
        <path fill="#1D1D26" fill-rule="nonzero" d="M7.917 8c0 .884.709 1.6 1.583 1.6s1.583-.716 1.583-1.6c0-.884-.709-1.6-1.583-1.6a.398.398 0 0 0-.396.4c0 .22.177.4.396.4.437 0 .792.358.792.8 0 .442-.355.8-.792.8a.796.796 0 0 1-.792-.8c0-.22-.177-.4-.396-.4a.398.398 0 0 0-.395.4z"/>
        <path stroke="#1D1D26" stroke-linecap="round" stroke-width=".8" d="M1.98 15.6L17.041.379"/>
    </g>
</svg>
