<svg xmlns="http://www.w3.org/2000/svg" width="9" height="12" viewBox="0 0 9 12">
    <path fill="#FFF" fill-rule="nonzero" d="M1.027 3.6v1.251H.945a.94.94 0 0 0-.926.95v5.234c0 .524.415.95.926.95h7.12a.94.94 0 0 0 .925-.95V5.8a.94.94 0 0 0-.926-.95H8.04V3.598C8.04 1.614 6.467 0 4.533 0 2.6.002 1.027 1.616 1.027 3.6zm4.027 5.05c-.072.054-.09.105-.09.19.002.385.002.767.002 1.152a.412.412 0 0 1-.21.387.437.437 0 0 1-.655-.387v-.003c0-.384 0-.769.003-1.153 0-.078-.017-.13-.084-.181a.89.89 0 0 1-.282-1.08c.165-.375.569-.595.948-.517a.886.886 0 0 1 .721.87.857.857 0 0 1-.353.722zM2.562 3.6c0-1.117.885-2.023 1.971-2.023 1.089 0 1.972.909 1.972 2.023v1.251H2.562V3.6z"/>
</svg>
