<svg xmlns="http://www.w3.org/2000/svg" xmlns:xlink="http://www.w3.org/1999/xlink" width="102" height="54" viewBox="0 0 102 54">
    <defs>
        <path id="a" d="M0 53.945h100.988V0H0z"/>
    </defs>
    <g fill="none" fill-rule="evenodd">
        <path fill="#790008" d="M17.871 25.526c-.43-2.986-2.629-4.599-5.639-4.599-2.818 0-6.784 1.468-6.784 8.913 0 4.079 1.816 8.392 6.547 8.392 3.153 0 5.35-2.085 5.876-5.593h5.448C22.314 38.993 18.35 42.5 11.995 42.5 4.252 42.5 0 37.047 0 29.84c0-7.395 4.063-13.18 12.186-13.18 5.733 0 10.608 2.845 11.133 8.866"/>
        <path fill="#EC1D24" d="M23.319 17.323H29.1l4.825 18.302h.097l4.634-18.302h5.496l4.444 18.302h.094l5.018-18.302h5.543L51.51 41.838h-5.59l-4.588-18.21h-.097l-4.538 18.21h-5.734M75.564 29.556c-1.674 1.092-4.302 1.043-6.69 1.47-2.341.38-4.445 1.233-4.445 4.08 0 2.417 3.105 3.126 5.016 3.126 2.392 0 6.119-1.23 6.119-4.645v-4.031zm5.447 6.828c0 1.329.286 1.848 1.287 1.848.336 0 .767 0 1.34-.095v3.749c-.812.283-2.532.614-3.441.614-2.198 0-3.774-.757-4.205-2.988-2.15 2.089-5.637 2.988-8.552 2.988-4.445 0-8.457-2.37-8.457-7.16 0-6.117 4.92-7.112 9.509-7.633 3.917-.71 7.405-.285 7.405-3.461 0-2.8-2.916-3.319-5.113-3.319-3.058 0-5.208 1.233-5.448 3.887H59.89c.383-6.305 5.782-8.154 11.231-8.154 4.824 0 9.891 1.943 9.891 7.112v12.612zM83.587 8.684c0 4.12 2.877 7.56 6.734 8.45 2.026-1.999 3.301-5.06 3.301-7.36 0-3.81-2.138-7.115-5.285-8.82-2.818 1.437-4.75 4.355-4.75 7.73"/>
        <path fill="#790008" d="M3.393 52.112l-.567-1.646h-.012l-.585 1.646h1.164zm-.057-2.751l1.68 4.484H3.991l-.34-.998H1.97l-.352.998H.624l1.699-4.484h1.013zM10.037 50.557a.995.995 0 0 0-.519-.414 1.033 1.033 0 0 0-.349-.06c-.223 0-.411.044-.566.13-.155.085-.281.2-.378.344a1.502 1.502 0 0 0-.21.493 2.435 2.435 0 0 0 0 1.121c.043.178.114.338.21.48.097.143.223.258.378.343.155.086.343.129.566.129.302 0 .538-.092.708-.276.17-.185.274-.428.311-.729h.957c-.025.28-.09.533-.196.76-.104.226-.243.419-.415.578-.172.159-.373.28-.604.364-.23.083-.484.125-.761.125-.344 0-.653-.06-.928-.179a1.99 1.99 0 0 1-.695-.493 2.182 2.182 0 0 1-.435-.737c-.1-.283-.15-.588-.15-.914 0-.336.05-.646.15-.933.101-.286.246-.537.435-.75.188-.213.42-.381.695-.503.275-.12.584-.182.928-.182.247 0 .481.036.701.107.22.071.418.175.592.31.174.137.318.305.43.506.114.201.185.432.215.691h-.956a.811.811 0 0 0-.114-.31"/>
        <mask id="b" fill="#fff">
            <use xlink:href="#a"/>
        </mask>
        <path fill="#790008" d="M11.818 53.845h.988V49.36h-.988zM15.065 49.36l1.05 3.084h.013l.994-3.083h1.39v4.484h-.924v-3.178h-.012l-1.102 3.178h-.761l-1.101-3.146h-.013v3.146h-.925V49.36zM21.426 53.079c.097 0 .189-.01.277-.029a.686.686 0 0 0 .232-.094.471.471 0 0 0 .16-.179.61.61 0 0 0 .06-.288c0-.23-.064-.395-.194-.494-.13-.098-.302-.147-.516-.147h-1.076v1.23h1.057zm-.057-1.903a.71.71 0 0 0 .435-.126c.113-.083.17-.22.17-.408a.522.522 0 0 0-.057-.258.42.42 0 0 0-.151-.156.638.638 0 0 0-.217-.079 1.428 1.428 0 0 0-.255-.022h-.925v1.05h1zm.126-1.815c.214 0 .41.019.585.056.177.038.328.1.453.186.126.086.224.2.293.342.069.142.104.318.104.527a.98.98 0 0 1-.154.566 1.12 1.12 0 0 1-.456.37c.276.08.483.219.62.418.136.199.204.438.204.719 0 .226-.044.422-.133.587-.088.165-.206.3-.355.405a1.583 1.583 0 0 1-.51.232c-.19.051-.387.076-.588.076h-2.177V49.36h2.114zM23.71 52.513h1.894v-.766H23.71zM28.127 51.47c.113 0 .222-.007.327-.024a.757.757 0 0 0 .277-.098.527.527 0 0 0 .192-.204.716.716 0 0 0 .073-.345.716.716 0 0 0-.073-.345.529.529 0 0 0-.192-.204.773.773 0 0 0-.277-.098 2.128 2.128 0 0 0-.327-.025h-.768v1.344h.768zm.27-2.11c.282 0 .52.042.718.123.197.082.357.19.481.324s.214.287.27.458a1.69 1.69 0 0 1 0 1.065 1.244 1.244 0 0 1-.751.785 1.875 1.875 0 0 1-.718.123H27.36v1.607h-.987V49.36h2.025zM32.639 51.39c.226 0 .396-.05.509-.151.113-.1.17-.264.17-.49 0-.218-.057-.376-.17-.474-.113-.099-.283-.148-.51-.148h-1.082v1.262h1.083zm.352-2.03c.201 0 .383.033.544.098.162.065.3.155.415.268.116.113.204.243.265.392.06.148.09.308.09.48 0 .264-.055.492-.166.684-.111.193-.293.34-.544.44v.013a.766.766 0 0 1 .497.399c.05.094.087.197.11.31.023.114.039.226.047.34l.013.25c.004.097.011.196.022.296.01.1.027.195.05.286.023.09.058.166.104.229h-.988a1.726 1.726 0 0 1-.1-.509 7.501 7.501 0 0 0-.057-.565c-.034-.234-.105-.406-.214-.515-.11-.109-.287-.163-.535-.163h-.988v1.752h-.988V49.36h2.423zM35.111 53.845h.988V49.36h-.988zM37.949 49.36l1.875 3.009h.012V49.36h.925v4.484h-.988l-1.868-3.002h-.013v3.002h-.925V49.36zM44.511 50.557a1 1 0 0 0-.519-.414 1.034 1.034 0 0 0-.349-.06c-.222 0-.411.044-.566.13-.155.085-.281.2-.378.344a1.506 1.506 0 0 0-.21.493 2.447 2.447 0 0 0 0 1.121c.043.178.114.338.21.48.097.143.223.258.378.343.155.086.344.129.566.129.302 0 .538-.092.708-.276.17-.185.274-.428.311-.729h.957c-.025.28-.09.533-.195.76-.105.226-.244.419-.416.578-.172.159-.373.28-.603.364a2.23 2.23 0 0 1-.762.125c-.344 0-.653-.06-.928-.179a1.992 1.992 0 0 1-.695-.493 2.182 2.182 0 0 1-.435-.737 2.71 2.71 0 0 1-.15-.914c0-.336.05-.646.15-.933.101-.286.246-.537.435-.75.188-.213.42-.381.695-.503.275-.12.584-.182.928-.182.247 0 .481.036.701.107.22.071.418.175.592.31.174.137.318.305.431.506.113.201.185.432.214.691h-.956a.811.811 0 0 0-.114-.31M46.292 53.845h.988V49.36h-.988zM49.904 51.47c.113 0 .222-.007.327-.024a.756.756 0 0 0 .277-.098.528.528 0 0 0 .191-.204.716.716 0 0 0 .073-.345.716.716 0 0 0-.073-.345.53.53 0 0 0-.191-.204.772.772 0 0 0-.277-.098 2.134 2.134 0 0 0-.327-.025h-.768v1.344h.768zm.27-2.11c.281 0 .52.042.718.123.197.082.357.19.48.324.124.134.215.287.272.458a1.702 1.702 0 0 1 0 1.065 1.25 1.25 0 0 1-.752.785 1.88 1.88 0 0 1-.717.123h-1.039v1.607h-.988V49.36h2.027zM54.182 52.112l-.566-1.646h-.013l-.585 1.646h1.164zm-.057-2.751l1.68 4.484H54.78l-.34-.998h-1.68l-.352.998h-.994l1.699-4.484h1.012zM57.184 49.36v3.656h2.189v.829h-3.177V49.36zM63.721 53.079c.096 0 .189-.01.277-.029a.69.69 0 0 0 .233-.094.471.471 0 0 0 .16-.179.614.614 0 0 0 .06-.288c0-.23-.065-.395-.195-.494-.13-.098-.302-.147-.516-.147h-1.076v1.23h1.057zm-.057-1.903a.71.71 0 0 0 .434-.126c.114-.083.17-.22.17-.408a.52.52 0 0 0-.056-.258.42.42 0 0 0-.151-.156.637.637 0 0 0-.217-.079 1.428 1.428 0 0 0-.256-.022h-.924v1.05h1zm.126-1.815c.214 0 .41.019.585.056.176.038.327.1.453.186s.224.2.293.342c.07.142.104.318.104.527a.977.977 0 0 1-.155.566 1.12 1.12 0 0 1-.456.37c.277.08.484.219.62.418.136.199.205.438.205.719 0 .226-.044.422-.133.587-.087.165-.206.3-.355.405-.15.105-.319.182-.51.232-.19.051-.387.076-.588.076h-2.177V49.36h2.114zM68.176 51.39c.226 0 .397-.05.51-.151.113-.1.17-.264.17-.49 0-.218-.057-.376-.17-.474-.113-.099-.284-.148-.51-.148h-1.082v1.262h1.082zm.352-2.03c.201 0 .383.033.545.098.161.065.3.155.415.268.116.113.204.243.264.392.061.148.091.308.091.48 0 .264-.055.492-.167.684-.11.193-.292.34-.544.44v.013a.77.77 0 0 1 .498.399c.05.094.087.197.11.31.023.114.039.226.047.34l.012.25c.004.097.012.196.022.296.01.1.028.195.05.286.024.09.058.166.105.229h-.988a1.707 1.707 0 0 1-.1-.509 7.843 7.843 0 0 0-.058-.565c-.034-.234-.104-.406-.214-.515-.109-.109-.287-.163-.534-.163h-.988v1.752h-.988V49.36h2.422zM72.945 52.112l-.566-1.646h-.013l-.585 1.646h1.164zm-.057-2.751l1.68 4.484h-1.025l-.34-.998h-1.68l-.352.998h-.994l1.699-4.484h1.012zM75.94 49.36l1.876 3.009h.012V49.36h.925v4.484h-.988l-1.868-3.002h-.014v3.002h-.924V49.36zM81.49 53.016c.143 0 .28-.023.415-.069a.91.91 0 0 0 .358-.23c.106-.106.19-.245.252-.417.063-.171.094-.38.094-.628 0-.226-.021-.43-.065-.613a1.232 1.232 0 0 0-.217-.467.963.963 0 0 0-.4-.298 1.59 1.59 0 0 0-.613-.104h-.705v2.826h.88zm.069-3.655c.29 0 .559.046.809.139.25.091.465.23.647.413.183.185.326.415.428.691.103.277.155.601.155.974 0 .326-.043.628-.126.904-.084.276-.21.515-.38.716-.171.201-.383.36-.636.474a2.15 2.15 0 0 1-.897.173H79.62V49.36h1.938zM89.857.35a10.128 10.128 0 0 0 10.202 4.447A8.695 8.695 0 0 0 92.288 0c-.846 0-1.66.127-2.431.35" mask="url(#b)"/>
        <path fill="#EC1D24" d="M93.573 15.224c0 .688.082 1.355.217 2.003 4.088-.71 7.198-4.26 7.198-8.543a8.614 8.614 0 0 0-.534-2.972c-3.999 1.348-6.88 5.09-6.88 9.512" mask="url(#b)"/>
    </g>
</svg>
