<svg xmlns="http://www.w3.org/2000/svg" width="16" height="16" viewBox="0 0 16 16">
    <g fill="#FFF" fill-rule="nonzero">
        <path d="M13.169 0H2.639A2.651 2.651 0 0 0 0 2.648v6.945a2.651 2.651 0 0 0 2.639 2.648h2.44v3.565l4.397-3.565h3.692a2.651 2.651 0 0 0 2.638-2.648V2.648A2.65 2.65 0 0 0 13.17 0zm1.373 9.751c0 .572-.481 1.054-1.05 1.054H8.953l-.481.39-1.817 1.474V10.805h-4.34c-.568 0-1.05-.483-1.05-1.054V2.38c0-.57.482-1.053 1.05-1.053h11.177c.569 0 1.05.482 1.05 1.054v7.37z"/>
        <circle cx="4.516" cy="5.871" r="1"/>
        <circle cx="7.677" cy="5.871" r="1"/>
        <circle cx="11.29" cy="5.871" r="1"/>
    </g>
</svg>
