<svg xmlns="http://www.w3.org/2000/svg" width="54" height="38" viewBox="0 0 54 38">
    <defs>
        <linearGradient id="a" x1="0%" y1="-5.816%" y2="-5.816%">
            <stop offset="0%" stop-color="#5EEC2C"/>
            <stop offset="100%" stop-color="#F42931"/>
        </linearGradient>
    </defs>
    <g fill="none" fill-rule="evenodd">
        <path stroke="url(#a)" stroke-linecap="round" stroke-width="6" d="M46.466 32A23.31 23.31 0 0 0 48 23.66C48 10.593 37.255 0 24 0S0 10.593 0 23.66c0 2.927.54 5.73 1.525 8.317" transform="translate(3 3)"/>
        <path fill="#1D1D26" d="M25.49 24.913l.864-11.602a.82.82 0 0 1 1.636 0l.865 11.602a4.045 4.045 0 0 1 2.385 3.685c0 2.235-1.821 4.046-4.068 4.046s-4.068-1.811-4.068-4.046c0-1.638.978-3.048 2.386-3.685zm1.682 5.786c1.167 0 2.112-.94 2.112-2.1 0-1.16-.945-2.101-2.112-2.101-1.166 0-2.112.94-2.112 2.1 0 1.16.946 2.1 2.112 2.1z"/>
    </g>
</svg>
