<svg xmlns="http://www.w3.org/2000/svg" width="12" height="12" viewBox="0 0 12 12">
    <path fill="#979797" fill-rule="nonzero" d="M11.817 10.924l-2.905-2.97a4.776 4.776 0 0 0 1.156-3.112C10.068 2.172 7.857 0 5.139 0 2.422 0 .211 2.172.211 4.842c0 2.67 2.21 4.842 4.928 4.842 1.02 0 1.993-.302 2.824-.876l2.927 2.991a.643.643 0 0 0 .464.194.646.646 0 0 0 .445-.176.625.625 0 0 0 .018-.893zm-6.678-9.66c2.01 0 3.643 1.605 3.643 3.578 0 1.974-1.634 3.58-3.643 3.58-2.008 0-3.642-1.606-3.642-3.58 0-1.973 1.634-3.579 3.642-3.579z"/>
</svg>
