<svg width="85" height="39" viewBox="0 0 85 39" xmlns="http://www.w3.org/2000/svg" xmlns:xlink="http://www.w3.org/1999/xlink">
    <defs>
        <path id="2htnt4pmpa" d="M0 .427h22.763v3H0z"/>
        <path id="6wcpxas9sc" d="M.286.312h58.34V38H.286z"/>
    </defs>
    <g fill="none" fill-rule="evenodd">
        <g transform="translate(0 7.688)">
            <mask id="dewwg4uf5b" fill="#fff">
                <use xlink:href="#2htnt4pmpa"/>
            </mask>
            <path d="M21.263.427H1.5a1.5 1.5 0 1 0 0 3h19.763a1.5 1.5 0 1 0 0-3" fill="#0091DA" mask="url(#dewwg4uf5b)"/>
        </g>
        <path d="M21.263 18.389H5.256a1.5 1.5 0 1 0 0 3h16.008a1.5 1.5 0 1 0-.001-3M21.263 30.053H9.208a1.5 1.5 0 1 0 0 3h12.055a1.5 1.5 0 1 0 0-3" fill="#0091DA"/>
        <g transform="translate(26 .688)">
            <mask id="fx8n58xx3d" fill="#fff">
                <use xlink:href="#6wcpxas9sc"/>
            </mask>
            <path d="M39.952 19.156 55.625 5.164V33.15L39.952 19.156zm-18.74 2.012 7.244 6.468c.012.01.027.014.04.024.126.105.263.189.409.247.025.01.048.016.072.023.153.052.313.085.474.086h.008c.16-.001.32-.034.474-.086.024-.008.048-.014.072-.023.146-.058.283-.142.409-.247.013-.011.028-.014.04-.024l7.246-6.47L53.193 35H5.719l15.493-13.832zm8.243 3.338L5.719 3.312h47.476l-23.74 21.194zM3.285 5.16l15.674 13.996L3.285 33.152V5.16zm51.6-4.85H4.028A3.747 3.747 0 0 0 .286 4.055v30.205c0 1.089.475 2.062 1.22 2.745.043.038.085.077.13.108.65.546 1.478.888 2.392.888h50.859c.91 0 1.736-.341 2.386-.886.052-.035.098-.078.146-.12a3.722 3.722 0 0 0 1.207-2.735V4.054A3.747 3.747 0 0 0 54.885.312z" fill="#0091DA" mask="url(#fx8n58xx3d)"/>
        </g>
    </g>
</svg>
