<svg xmlns="http://www.w3.org/2000/svg" width="14" height="14" viewBox="0 0 14 14">
    <g fill="none" fill-rule="evenodd" opacity=".4">
        <g fill="#FFF" fill-rule="nonzero">
            <g>
                <g>
                    <g>
                        <g>
                            <g>
                                <path d="M7 0C3.134 0 0 3.134 0 7s3.134 7 7 7 7-3.134 7-7-3.134-7-7-7zm.438 10.027v.473c0 .242-.196.438-.438.438s-.438-.197-.438-.438v-.474c-.448-.074-.858-.257-1.165-.529-.181-.16-.197-.436-.037-.617.16-.182.437-.197.618-.037.247.219.62.345 1.022.345.711 0 1.313-.401 1.313-.876 0-.474-.602-.874-1.313-.874-1.206 0-2.188-.785-2.188-1.75 0-.846.753-1.553 1.75-1.715V3.5c0-.241.196-.438.438-.438s.438.197.438.438v.474c.448.074.858.257 1.165.529.18.16.198.437.037.617s-.437.196-.618.037c-.247-.218-.62-.345-1.022-.345-.711 0-1.313.401-1.313.875 0 .475.602.875 1.313.875 1.207 0 2.188.785 2.188 1.75 0 .846-.753 1.553-1.75 1.716z" transform="translate(-987 -202) translate(220 164) translate(666 35) translate(1) translate(100) translate(0 3)"/>
                            </g>
                        </g>
                    </g>
                </g>
            </g>
        </g>
    </g>
</svg>
