<svg xmlns="http://www.w3.org/2000/svg" width="16" height="12" viewBox="0 0 16 12">
    <g fill="#FFF" fill-rule="nonzero" opacity=".4">
        <path d="M15.185 1.714L10.743 6l4.442 4.286c.08-.163.13-.343.13-.536v-7.5c0-.193-.05-.373-.13-.536zM13.864.857H2.136c-.193 0-.373.048-.536.126L7.116 6.49c.487.49 1.28.49 1.768 0L14.4.983a1.233 1.233 0 0 0-.536-.126zM.815 1.714c-.08.163-.13.343-.13.536v7.5c0 .193.05.373.13.536L5.257 6 .815 1.714z"/>
        <path d="M10.084 6.857l-.61.593a2.13 2.13 0 0 1-2.948 0l-.61-.593L1.6 11.021c.163.076.343.122.536.122h11.728c.193 0 .373-.046.536-.122l-4.316-4.164z"/>
    </g>
</svg>
