<svg xmlns="http://www.w3.org/2000/svg" width="16" height="11" viewBox="0 0 16 11">
    <path fill="#FFF" fill-rule="nonzero" d="M7.253 7.758a.708.708 0 0 1-.702.715H2.994a.708.708 0 0 1-.702-.715c0-.831.665-1.508 1.482-1.508h.147a1.476 1.476 0 0 1-.593-1.185c0-.81.648-1.47 1.444-1.47.796 0 1.444.66 1.444 1.47 0 .486-.234.917-.593 1.185h.146c.797 0 1.449.643 1.481 1.446.002.02.003.041.003.062zM16 .552v9.896a.531.531 0 0 1-.526.535H.526A.531.531 0 0 1 0 10.448V.552C0 .256.236.017.526.017h14.948c.29 0 .526.24.526.535zM8.045 2.384a.531.531 0 0 0-.526-.536H2.025c-.29 0-.526.24-.526.536v6.233c0 .295.236.535.526.535H7.52c.29 0 .526-.24.526-.535V2.383zm6.323 5.402a.531.531 0 0 0-.527-.536h-3.76c-.29 0-.525.24-.525.536 0 .296.235.535.526.535h3.76c.29 0 .526-.24.526-.535zm0-2.286a.531.531 0 0 0-.527-.536h-3.76c-.29 0-.525.24-.525.536 0 .296.235.536.526.536h3.76c.29 0 .526-.24.526-.536zm0-2.286a.531.531 0 0 0-.527-.535h-3.76c-.29 0-.525.24-.525.535 0 .296.235.536.526.536h3.76c.29 0 .526-.24.526-.536z" opacity=".4"/>
</svg>
