<svg xmlns="http://www.w3.org/2000/svg" xmlns:xlink="http://www.w3.org/1999/xlink" width="71" height="69" viewBox="0 0 71 69">
    <defs>
        <ellipse id="prefix__a" cx="34.549" cy="34.493" rx="34.549" ry="34.493"/>
    </defs>
    <g fill="none" fill-rule="evenodd" transform="translate(.922)">
        <ellipse cx="34.549" cy="34.493" fill="#EFEFEF" fill-rule="nonzero" rx="34.549" ry="34.493"/>
        <mask id="prefix__b" fill="#fff">
            <use xlink:href="#prefix__a"/>
        </mask>
        <use fill="#EFEFEF" fill-rule="nonzero" xlink:href="#prefix__a"/>
        <path fill="#FFF" d="M.586 20.982c.192.072.306.261.363.442.007.023.015.047.038.059.018.01.042.008.063.006.105-.013.216-.04.315-.006.09.03.15.107.183.186.034.079.049.163.08.242.057.142.17.267.315.348.035.02.077.037.119.032.047-.007.082-.042.124-.064.115-.062.264-.02.391.022.021.007.043.014.065.01.082-.01.068-.121.119-.179.05-.055.145-.046.226-.042.19.01.281-.18.38-.293.09-.103.21-.2.357-.207.08-.004.167.018.236-.016.075-.037.095-.122.127-.192.1-.22.396-.345.664-.312.269.033.5.203.622.414.045.077.078.16.135.23.057.069.148.126.246.121.11-.006.193-.085.293-.125.14-.054.307-.028.437.042s.228.178.311.29c.062.083.12.17.203.237.084.066.204.109.312.08.08-.022.141-.08.211-.12.151-.089.356-.102.52-.034.11.046.198.123.3.182.234.139.42-.017.661.072.102.037.189.103.294.133.183.052.319-.045.49-.075.185-.032.374-.05.563-.053.189-.003.379.008.566.032.164.021.374.109.535.104-3.635.105-7.263.38-10.864.823v-2.39M7.632 18.884c3.212-.186 6.432-.252 9.65-.198-.108-.354-.603-.32-1-.437-.287-.084-.48-.314-.738-.45-.258-.137-.688-.116-.757.14-.017-.636-1.118-1.094-1.831-.962-.713.131-1.245.675-1.528 1.262-.28-.182-.705-.169-.97.032-.322-.147-.765-.035-1.002.206-.215-.25-.71-.25-.926 0-.065.074-.11.167-.201.215-.207.107-.55.026-.697.192M26.937 24.146c7.499-.412 15.02-.558 22.533-.438-.254-.784-1.409-.71-2.338-.967-.667-.186-1.12-.695-1.722-.997-.602-.302-1.606-.254-1.767.313-.039-1.41-2.61-2.42-4.276-2.13-1.664.291-2.906 1.494-3.566 2.793-.654-.405-1.647-.374-2.263.07-.753-.325-1.79-.078-2.343.455-.502-.552-1.659-.553-2.162-.001-.15.164-.254.37-.468.476-.484.237-1.284.058-1.628.426" mask="url(#prefix__b)"/>
        <path fill="#CCCCCF" d="M30.199 49.346c.522.158 16.471-5.22 17.956-5.129 1.293.08 17.263 4.213 26.846 7.667v8.9H-5.922V47.846c5.8-1.406 13.287-3.326 14.337-3.399 2.413-.167 21.262 4.74 21.784 4.898" mask="url(#prefix__b)"/>
        <path fill="#FBF9FB" d="M30.199 49.346l22.81 4.536-12.383-3.404c1.239-.561 12.436-3.133 7.529-6.261-.334-.213-13.707 3.582-17.956 5.13M-5.922 47.847c5.8-1.406 13.287-3.326 14.337-3.399.089-.006.202-.005.334.002 2.39 1.397 4.683 2.37 5.013 3.512.386 1.336-8.27 3.812-19.684 5.95v-6.065" mask="url(#prefix__b)"/>
        <path fill="#DDDDDF" d="M39.67 56.645c.687-.048 6.73-2.268 6.73-2.268 1.08-.1 10.925 2.377 11.465 2.338.54-.039 5.53-2.086 5.53-2.086 1.151-.08 7.585 2.107 11.606 3.566v10.791l-80.923.194V53.421c2.813 1.193 8.486 3.575 8.88 3.548.525-.037 14.282-4.384 16.22-4.828 1.34-.307 19.805 4.552 20.492 4.504z" mask="url(#prefix__b)"/>
        <path fill="#FFF" d="M48.636 14.472c.072-.5.38-.502.725-.55.345-.046.686.11 1.024.223.116.039.247.07.348-.022.124-.113.154-.362.254-.517.262-.405.728.062 1.097-.068.385-.136.532-.858.879-1.139.468-.377 1.016.191 1.412.718.397.526.961 1.075 1.417.665.156-.14.278-.386.46-.431.398-.098.57.778.94 1.018.232.151.5.02.755.03.255.01.378.194.284.542-3.592-.408-7.2-.495-10.8-.26.343-.415.942-.732 1.205-.209M61.153 22.728c.167-.272.622-.252.953-.143.323.106.559-.117.88-.174.367-.066.756-.037 1.102.09.201.072.392.177.608.197.2-.202.42-.398.675-.544.194-.11.444-.205.649-.111.144.065.297.217.428.133.051-.032.07-.09.09-.142.177-.492.662-.89 1.235-1.012.236-.05.482-.052.72-.013v1.924c-2.6-.116-5.258-.134-8.146-.134.19-.242.609-.309.806-.07" mask="url(#prefix__b)"/>
        <path fill="#898989" d="M49.862 42.464l.008-.103c.038.03.08.048.12.066l.012.005c.055.024.11.036.168.036.046 0 .092-.007.14-.022.056-.017.119-.046.197-.09.085-.05.146-.13.205-.209l.01-.013c.009.014.022.026.038.037-.012.066-.015.135-.037.196l-.006.017c-.037.004-.074.007-.104.013-.063.013-.115.047-.175.065-.036.011-.08.008-.098.046-.023.046-.001.124.016.17l.022.061c-.022.017-.04.038-.063.06-.06.057-.136.1-.222.095-.08-.005-.148-.005-.192-.083-.053-.095-.043-.242-.039-.347zm-.599-.507c0 .06.052.047.091.023.087.052.141.162.142.264.002.302-.036.597.065.889.067.194.232.326.45.314-.003.046.026.116.053.154l.003.004c-.045.086.017.243.029.32.016.107.009.216.005.323-.002.048-.005.097-.014.145-.01.052-.029.09-.024.145.01.112 0 .214-.013.326-.01.08-.011.181-.038.256-.015.043-.065.101-.008.13.023.011.115.03.14.017.032-.017.018-.046.01-.075-.017-.074-.02-.126-.007-.203.013-.072.02-.145.029-.219.006-.053.007-.102.04-.148.025-.033.078-.077.08-.119.002-.034-.021-.064-.019-.1.002-.026.005-.053.01-.078.013-.094.034-.186.047-.279.011-.082.049-.161.053-.246.001-.016 0-.035-.005-.056.053.007.104.018.158.043l.088.042c.025.06.051.117.055.184.004.081.027.165.042.247.008.048.015.096.017.145.002.053-.01.094.007.147.033.107.045.21.055.322.007.079.027.179.016.258-.006.045-.042.112.02.128.024.007.118.005.14-.012.028-.023.007-.049-.005-.076-.033-.069-.048-.119-.05-.196-.003-.074-.01-.147-.018-.22-.005-.054-.014-.103.009-.154.017-.038.06-.091.053-.133-.005-.033-.034-.058-.04-.094l-.007-.079c-.006-.094-.005-.188-.011-.282-.006-.068.004-.137.001-.205.02-.015.038-.032.05-.047.101.003.195-.022.285-.058l.023.025-.006.027c-.015.085.003.172-.004.258-.006.094-.005.188-.011.282-.002.026-.004.053-.008.079-.005.036-.034.06-.04.094-.006.042.037.095.054.133.023.051.014.1.009.153-.007.074-.015.147-.018.22-.002.078-.017.128-.05.197-.013.027-.033.053-.005.076.021.017.116.019.14.012.062-.016.026-.083.02-.128-.011-.08.008-.18.016-.258.01-.113.022-.215.055-.322.016-.053.005-.094.007-.147.002-.049.009-.097.017-.145.014-.082.037-.166.042-.247.004-.085.046-.155.073-.234l.01-.03c.06.011.122.035.178.057.04.015.072.031.1.051.02.05.04.1.043.156.004.081.027.165.041.247.009.048.016.096.018.145.001.053-.01.094.007.147.033.107.044.21.055.322.007.079.027.179.016.258-.006.045-.042.112.02.128.024.007.118.005.14-.012.028-.023.007-.049-.005-.076-.033-.069-.048-.119-.05-.196-.003-.074-.01-.147-.018-.22-.005-.054-.014-.103.009-.154.016-.038.06-.091.053-.133-.005-.033-.034-.058-.04-.094-.004-.026-.006-.053-.007-.079-.006-.094-.005-.188-.012-.282-.006-.086.012-.173-.003-.258l-.012-.044c.006-.036 0-.077-.003-.11-.006-.076-.006-.152-.005-.228v-.037c.058-.058.12-.142.135-.182.038-.099-.001-.095-.046-.154-.023-.031-.06-.087-.089-.114-.036-.032-.092-.047-.145-.043.001-.092-.034-.204-.097-.243-.026-.016-.05-.015-.075-.01.004-.033-.004-.06-.012-.093-.014-.062-.007-.133-.01-.196-.001-.029.008-.06-.018-.08-.054-.039-.057.04-.076.065-.035-.025-.08-.034-.129-.035.005-.03.002-.062-.01-.096-.048-.128-.16-.127-.24-.065-.002-.053-.003-.105-.01-.158-.006-.038-.005-.072-.012-.103.03-.003.056-.013.08-.03.022-.016.037-.05.068-.044-.003-.046-.052-.03-.08-.026-.034.006-.066.002-.098-.011-.041-.017-.063-.052-.1-.073-.015-.007-.028-.011-.041-.014l.007-.021.003-.007c.049.007.1.004.116-.032.015-.036-.021-.072-.064-.099l.01-.024c-.007-.015-.045-.032-.058-.04-.065-.044-.12-.069-.199-.042.008.02.004.017-.001.016l-.002.008c-.037.001-.068.014-.068.054 0 .032.02.057.048.078-.006.038-.016.093.016.099-.012.04-.015.088.018.11-.015.006-.03.013-.043.021-.067.042-.042.107-.051.175-.006.04-.018.08-.03.121-.02-.005-.037-.007-.046-.002-.005.004-.013.017-.02.03l-.04.051c-.057.076-.117.155-.196.2-.076.043-.136.071-.19.088-.102.031-.196.027-.287-.013l-.01-.005c-.047-.02-.091-.039-.128-.072l-.001-.002.007-.05c.011-.08.053-.239-.024-.298.045-.028.167-.074.119-.153-.03.04-.15.008-.146.055-.026-.115-.194-.014-.272-.043-.033-.013-.206-.116-.206-.048-.046 0-.055.022-.05.063-.056 0-.101.082-.04.107z" mask="url(#prefix__b)"/>
        <path fill="#F1F1F1" d="M20.835 59.116c-3.187.395-4.061 1.047-4.01 1.675h-3.28c-5.873-2.02-10.527-3.814-10.527-3.814.525-.037 14.85-4.807 16.22-4.828 5.239 1.904 13.492 5.493 1.597 6.967M46.37 56.979c-.405.405 5.665 2.246 5.665 2.246l-12.396-2.65c.687-.047 5.652-2.169 6.73-2.267 5.396 2.014.406 2.266 0 2.67M63.142 56.298c-2.562.451.944 1.782.944 1.782l-6.204-1.417c.54-.038 4.046-1.983 5.53-2.086 0 0 2.293 1.27-.27 1.721" mask="url(#prefix__b)"/>
    </g>
</svg>
