<svg xmlns="http://www.w3.org/2000/svg" width="20" height="16" viewBox="0 0 20 16">
    <path fill="#0091DA" d="M15.619 15.387h-4.285v-4.402h1.416c.36 0 .572-.415.36-.714l-2.755-3.874c-.175-.25-.539-.25-.714 0L6.887 10.27c-.213.3-.005.714.359.714h1.416v4.402H3.863C1.72 15.267.015 13.229.015 11.022c0-1.522.812-2.85 2.016-3.568-.11-.302-.168-.626-.168-.966 0-1.556 1.237-2.813 2.767-2.813.33 0 .649.058.947.17C6.462 1.937 8.372.613 10.592.613c2.872.004 5.239 2.24 5.508 5.09 2.208.387 3.885 2.465 3.885 4.817 0 2.514-1.926 4.692-4.366 4.867z"/>
</svg>
