<svg xmlns="http://www.w3.org/2000/svg" width="14" height="14" viewBox="0 0 14 14">
    <g fill="#FFF" fill-rule="nonzero" opacity=".4">
        <path d="M13.64 10.31L11.9 8.573c-.465-.463-1.276-.464-1.741 0l-.29.29 3.48 3.473.29-.29c.482-.48.48-1.258 0-1.736zM9.273 9.425a.924.924 0 0 1-1.223-.063L4.61 5.926a.92.92 0 0 1-.064-1.22L1.074 1.24C-.42 2.978-.361 5.597 1.287 7.242l5.445 5.436a4.41 4.41 0 0 0 6.013.213L9.273 9.425zM5.4 2.085L3.66.348c-.464-.464-1.275-.464-1.74 0l-.29.29L5.11 4.11l.29-.29c.482-.48.48-1.258 0-1.736z"/>
    </g>
</svg>
