<svg xmlns="http://www.w3.org/2000/svg" width="24" height="24" viewBox="0 0 24 24">
    <g fill="none" fill-rule="evenodd" stroke="rgb(0, 145, 218)">
        <path fill="rgb(0, 145, 218)" fill-rule="nonzero" stroke-width=".583" d="M15.273 11.71a.291.291 0 0 0 0-.416.286.286 0 0 0-.412 0l-2.107 2.103v-6.95a.293.293 0 1 0-.587 0v6.95l-2.103-2.103a.291.291 0 0 0-.416 0 .291.291 0 0 0 0 .416l2.607 2.606c.112.112.3.112.415 0l2.603-2.606zm2.065 1.908a.29.29 0 0 1 .291-.291c.163 0 .296.129.296.29v2.86a.296.296 0 0 1-.296.296H7.291A.293.293 0 0 1 7 16.478v-2.86a.29.29 0 0 1 .291-.291c.162 0 .295.129.295.29v2.57h9.752v-2.57z"/>
        <circle cx="12" cy="12" r="11.5"/>
    </g>
</svg>
