<svg xmlns="http://www.w3.org/2000/svg" xmlns:xlink="http://www.w3.org/1999/xlink" width="102" height="54" viewBox="0 0 102 54">
    <defs>
        <path id="a" d="M0 53.945h101.988V0H0z"/>
    </defs>
    <g fill="none" fill-rule="evenodd">
        <path fill="#FEFEFE" d="M18.048 25.526c-.435-2.986-2.655-4.599-5.694-4.599-2.846 0-6.852 1.468-6.852 8.913 0 4.079 1.834 8.392 6.611 8.392 3.185 0 5.403-2.085 5.935-5.593h5.502c-1.015 6.354-5.018 9.861-11.437 9.861C4.294 42.5 0 37.047 0 29.84c0-7.395 4.103-13.18 12.307-13.18 5.789 0 10.712 2.845 11.243 8.866h-5.502zM23.55 17.323h5.838l4.873 18.302h.098l4.68-18.302h5.55l4.488 18.302h.095l5.067-18.302h5.6l-7.82 24.515h-5.645l-4.633-18.21h-.097l-4.584 18.21h-5.79zM76.312 29.556c-1.69 1.092-4.344 1.043-6.757 1.47-2.364.38-4.488 1.233-4.488 4.08 0 2.417 3.136 3.126 5.066 3.126 2.415 0 6.179-1.23 6.179-4.645v-4.031zm5.501 6.828c0 1.329.289 1.848 1.3 1.848.339 0 .775 0 1.352-.095v3.749c-.82.283-2.556.614-3.474.614-2.22 0-3.811-.757-4.246-2.988-2.173 2.089-5.693 2.988-8.637 2.988-4.489 0-8.541-2.37-8.541-7.16 0-6.117 4.968-7.112 9.603-7.633 3.956-.71 7.478-.285 7.478-3.461 0-2.8-2.944-3.319-5.163-3.319-3.089 0-5.26 1.233-5.502 3.887h-5.5c.386-6.305 5.838-8.154 11.341-8.154 4.872 0 9.989 1.943 9.989 7.112v12.612zM84.415 8.684c0 4.12 2.905 7.56 6.8 8.45 2.046-1.999 3.334-5.06 3.334-7.36 0-3.81-2.159-7.115-5.338-8.82-2.845 1.437-4.796 4.355-4.796 7.73M3.426 52.112l-.572-1.646h-.012l-.591 1.646h1.175zM3.37 49.36l1.697 4.484H4.03l-.343-.998H1.99l-.355.998H.63l1.715-4.484h1.023zM10.137 50.557a.999.999 0 0 0-.525-.414c-.112-.04-.23-.06-.352-.06-.225 0-.416.044-.572.13-.157.085-.284.2-.381.344a1.494 1.494 0 0 0-.213.493 2.413 2.413 0 0 0 0 1.121c.044.178.115.338.213.48.097.143.224.258.38.343.157.086.348.129.573.129.305 0 .543-.092.715-.276.171-.185.276-.428.314-.729h.966c-.025.28-.091.533-.197.76-.106.226-.246.419-.42.578-.173.159-.376.28-.61.364a2.27 2.27 0 0 1-.768.125c-.348 0-.66-.06-.938-.179a2.01 2.01 0 0 1-.702-.493 2.177 2.177 0 0 1-.438-.737 2.68 2.68 0 0 1-.153-.914c0-.336.051-.646.153-.933.102-.286.248-.537.438-.75.19-.213.425-.381.702-.503a2.32 2.32 0 0 1 .938-.182c.25 0 .486.036.708.107.223.071.422.175.597.31.177.137.322.305.436.506.114.201.186.432.216.691h-.966a.806.806 0 0 0-.114-.31"/>
        <mask id="b" fill="#fff">
            <use xlink:href="#a"/>
        </mask>
        <path fill="#FEFEFE" d="M11.935 53.845h.998V49.36h-.998zM15.214 49.36l1.061 3.084h.013l1.004-3.083h1.404v4.484h-.934v-3.178h-.012l-1.113 3.178h-.769l-1.112-3.146h-.012v3.146h-.934V49.36zM21.638 53.079c.098 0 .19-.01.28-.029a.697.697 0 0 0 .235-.094.473.473 0 0 0 .162-.179.606.606 0 0 0 .06-.288c0-.23-.065-.395-.197-.494-.131-.098-.305-.147-.52-.147H20.57v1.23h1.067zm-.057-1.903a.723.723 0 0 0 .438-.126c.115-.083.172-.22.172-.408a.518.518 0 0 0-.057-.258.422.422 0 0 0-.153-.156.648.648 0 0 0-.219-.079 1.456 1.456 0 0 0-.257-.022h-.934v1.05h1.01zm.127-1.815c.216 0 .413.019.591.056.178.038.33.1.457.186.128.086.226.2.296.342.07.142.105.318.105.527a.973.973 0 0 1-.156.566 1.13 1.13 0 0 1-.46.37c.28.08.488.219.625.418.138.199.207.438.207.719a1.149 1.149 0 0 1-.492.992c-.15.105-.323.182-.515.232-.193.051-.391.076-.595.076h-2.198V49.36h2.135zM23.945 52.513h1.913v-.766h-1.913zM28.406 51.47c.114 0 .224-.007.33-.024a.77.77 0 0 0 .28-.098.53.53 0 0 0 .193-.204.71.71 0 0 0 .074-.345.71.71 0 0 0-.074-.345.53.53 0 0 0-.193-.204.785.785 0 0 0-.28-.098 2.17 2.17 0 0 0-.33-.025h-.776v1.344h.776zm.273-2.11c.284 0 .525.042.724.123.2.082.361.19.486.324s.216.287.273.458a1.675 1.675 0 0 1 0 1.065 1.242 1.242 0 0 1-.273.462 1.367 1.367 0 0 1-.486.323 1.91 1.91 0 0 1-.724.123H27.63v1.607h-.997V49.36h2.046zM32.962 51.39c.228 0 .4-.05.514-.151.115-.1.172-.264.172-.49 0-.218-.057-.376-.172-.474-.114-.099-.286-.148-.514-.148h-1.093v1.262h1.093zm.355-2.03c.204 0 .387.033.55.098.163.065.303.155.42.268.116.113.205.243.266.392.061.148.092.308.092.48 0 .264-.056.492-.168.684-.112.193-.296.34-.55.44v.013a.777.777 0 0 1 .503.399c.05.094.087.197.11.31.024.114.04.226.048.34l.013.25c.004.097.012.196.022.296.01.1.028.195.051.286.023.09.058.166.105.229h-.997a1.711 1.711 0 0 1-.102-.509 7.43 7.43 0 0 0-.058-.565c-.034-.234-.106-.406-.216-.515-.11-.109-.29-.163-.54-.163h-.997v1.752h-.998V49.36h2.446zM35.459 53.845h.997V49.36h-.997zM38.324 49.36l1.894 3.009h.013V49.36h.934v4.484h-.998l-1.887-3.002h-.013v3.002h-.934V49.36zM44.952 50.557a1.004 1.004 0 0 0-.524-.414c-.113-.04-.23-.06-.353-.06a1.18 1.18 0 0 0-.572.13c-.156.085-.284.2-.381.344a1.499 1.499 0 0 0-.213.493 2.424 2.424 0 0 0 0 1.121c.045.178.115.338.213.48.097.143.225.258.381.343.157.086.348.129.572.129.305 0 .543-.092.715-.276.172-.185.277-.428.315-.729h.966c-.026.28-.092.533-.198.76-.105.226-.245.419-.419.578-.174.159-.377.28-.61.364-.233.083-.49.125-.769.125-.347 0-.66-.06-.937-.179a2.011 2.011 0 0 1-.702-.493 2.177 2.177 0 0 1-.439-.737 2.686 2.686 0 0 1-.152-.914c0-.336.05-.646.152-.933.102-.286.248-.537.439-.75.19-.213.424-.381.702-.503a2.32 2.32 0 0 1 .937-.182c.25 0 .486.036.709.107.222.071.421.175.597.31.176.137.321.305.435.506.114.201.187.432.216.691h-.965a.806.806 0 0 0-.115-.31M46.75 53.845h.998V49.36h-.997zM50.398 51.47c.114 0 .224-.007.33-.024a.768.768 0 0 0 .28-.098.53.53 0 0 0 .193-.204.71.71 0 0 0 .074-.345.71.71 0 0 0-.074-.345.532.532 0 0 0-.193-.204.784.784 0 0 0-.28-.098 2.176 2.176 0 0 0-.33-.025h-.775v1.344h.775zm.273-2.11c.284 0 .526.042.725.123.198.082.36.19.485.324s.217.287.274.458a1.687 1.687 0 0 1 0 1.065c-.057.173-.149.327-.274.462a1.366 1.366 0 0 1-.485.323c-.2.081-.441.123-.725.123h-1.048v1.607h-.998V49.36h2.046zM54.719 52.112l-.573-1.646h-.012l-.59 1.646h1.175zm-.058-2.751l1.697 4.484h-1.036l-.343-.998h-1.696l-.356.998h-1.004l1.715-4.484h1.023zM57.75 49.36v3.656h2.21v.829h-3.208V49.36zM64.352 53.079c.097 0 .19-.01.28-.029a.701.701 0 0 0 .235-.094.473.473 0 0 0 .162-.179.609.609 0 0 0 .06-.288c0-.23-.066-.395-.197-.494-.132-.098-.305-.147-.521-.147h-1.086v1.23h1.067zm-.058-1.903a.723.723 0 0 0 .44-.126c.114-.083.17-.22.17-.408a.515.515 0 0 0-.056-.258.422.422 0 0 0-.153-.156.648.648 0 0 0-.22-.079 1.456 1.456 0 0 0-.257-.022h-.933v1.05h1.01zm.128-1.815c.216 0 .413.019.59.056.179.038.33.1.458.186.127.086.226.2.296.342.07.142.105.318.105.527a.97.97 0 0 1-.156.566 1.13 1.13 0 0 1-.46.37c.279.08.487.219.625.418.138.199.207.438.207.719a1.147 1.147 0 0 1-.492.992c-.152.105-.323.182-.516.232a2.33 2.33 0 0 1-.594.076h-2.198V49.36h2.135zM68.851 51.39c.228 0 .4-.05.515-.151.114-.1.171-.264.171-.49 0-.218-.057-.376-.171-.474-.114-.099-.287-.148-.515-.148h-1.093v1.262h1.093zm.356-2.03c.203 0 .387.033.55.098.162.065.302.155.42.268.116.113.205.243.266.392.061.148.092.308.092.48 0 .264-.056.492-.169.684-.112.193-.295.34-.55.44v.013a.78.78 0 0 1 .503.399c.05.094.088.197.111.31.024.114.04.226.048.34l.012.25c.005.097.012.196.023.296.01.1.027.195.05.286.024.09.059.166.105.229h-.997a1.692 1.692 0 0 1-.101-.509 7.768 7.768 0 0 0-.058-.565c-.034-.234-.106-.406-.217-.515-.11-.109-.29-.163-.54-.163h-.997v1.752h-.998V49.36h2.447zM73.667 52.112l-.572-1.646h-.012l-.59 1.646h1.174zm-.057-2.751l1.697 4.484H74.27l-.343-.998h-1.696l-.356.998H70.87l1.716-4.484h1.023zM76.692 49.36l1.894 3.009h.012V49.36h.935v4.484h-.998l-1.887-3.002h-.013v3.002H75.7V49.36zM82.297 53.016c.144 0 .283-.023.419-.069a.921.921 0 0 0 .362-.23 1.15 1.15 0 0 0 .254-.417c.064-.171.095-.38.095-.628 0-.226-.021-.43-.066-.613a1.227 1.227 0 0 0-.22-.467.972.972 0 0 0-.403-.298 1.62 1.62 0 0 0-.619-.104h-.711v2.826h.889zm.07-3.655c.292 0 .564.046.816.139.252.091.47.23.654.413.185.185.329.415.433.691.103.277.155.601.155.974 0 .326-.042.628-.127.904a1.989 1.989 0 0 1-.384.716 1.8 1.8 0 0 1-.642.474 2.19 2.19 0 0 1-.906.173H80.41V49.36h1.957zM90.746.35a10.254 10.254 0 0 0 8.583 4.595c.587 0 1.162-.053 1.72-.148A8.79 8.79 0 0 0 93.202 0c-.854 0-1.676.127-2.455.35M94.5 15.224c0 .688.082 1.355.219 2.003 4.128-.71 7.269-4.26 7.269-8.543a8.539 8.539 0 0 0-.54-2.972C97.41 7.06 94.5 10.802 94.5 15.224" mask="url(#b)"/>
    </g>
</svg>
