<svg xmlns="http://www.w3.org/2000/svg" width="18" height="24" viewBox="0 0 18 24">
    <g fill="#FFF" fill-rule="nonzero" opacity=".4">
        <path d="M6 20.571v.023C6 22.475 7.343 24 9 24s3-1.525 3-3.406v-.023H6zM17.783 16.4l-2.476-3.51V8.51c0-2.953-2.179-5.414-5.07-5.97V1.195C10.237.534 9.683 0 9 0S7.763.534 7.763 1.194v1.348c-2.891.555-5.07 3.016-5.07 5.97v4.378L.217 16.4c-.261.37-.289.848-.072 1.243.217.395.642.643 1.106.643h15.498c.464 0 .89-.248 1.106-.643.217-.395.189-.874-.072-1.243z"/>
    </g>
</svg>
