<svg xmlns="http://www.w3.org/2000/svg" width="30" height="40" viewBox="0 0 30 40">
    <g fill="none" fill-rule="nonzero">
        <path fill="#1D1D26" d="M11.392 35.04a.624.624 0 0 1 0-1.25h7.217c.343 0 .62.28.62.625a.623.623 0 0 1-.62.625h-7.217zM12.194 37.52a.623.623 0 0 1-.62-.624c0-.345.279-.625.62-.625h5.613c.343 0 .621.28.621.625a.623.623 0 0 1-.62.625h-5.614z"/>
        <path fill="rgb(0, 145, 218)" d="M14.416 28.88a.62.62 0 0 1-.618.623.62.62 0 0 1-.618-.623c-.003-2.631-.078-4.597-.439-6.418-.357-1.8-.996-3.467-2.13-5.525a.619.619 0 1 1 1.081-.605c1.204 2.185 1.886 3.964 2.266 5.887.376 1.898.455 3.937.458 6.661zM16.822 28.88a.62.62 0 0 1-.619.623.62.62 0 0 1-.618-.623c.003-2.724.082-4.762.458-6.661.38-1.923 1.062-3.702 2.266-5.887a.615.615 0 0 1 .84-.24.625.625 0 0 1 .24.845c-1.134 2.058-1.773 3.727-2.13 5.525-.36 1.82-.436 3.787-.437 6.418z"/>
        <path fill="rgb(0, 145, 218)" d="M10.963 17.228a.624.624 0 0 1-.401-.784.619.619 0 0 1 .778-.404c.432.141.806.33 1.151.504l.034.019c.54.273.988.486 1.322.213l.763-.626a.617.617 0 0 1 .87.09.627.627 0 0 1-.09.877l-.763.627c-.95.778-1.728.4-2.665-.073l-.028-.013a6.908 6.908 0 0 0-.971-.43zM15.621 3.047a.623.623 0 0 1-.62.625.623.623 0 0 1-.621-.625V.625C14.38.28 14.658 0 15 0c.343 0 .621.28.621.625v2.422z"/>
        <path fill="rgb(0, 145, 218)" d="M18.66 16.04a.623.623 0 0 1 .378 1.188c-.34.11-.668.277-.972.43l-.028.014c-.936.473-1.714.853-2.665.073l-.763-.626a.627.627 0 0 1-.09-.877.617.617 0 0 1 .87-.09l.763.625c.334.274.781.059 1.322-.213l.034-.018c.346-.176.72-.365 1.152-.506z"/>
        <path fill="#1D1D26" d="M22.811 9.715a11.126 11.126 0 0 1 3.236 7.863 11.111 11.111 0 0 1-2.125 6.555c-1.14 1.569-2.064 2.599-2.782 3.4-1.292 1.438-1.858 2.069-1.858 4.173a.623.623 0 0 1-.621.625h-7.268a.624.624 0 0 1-.622-.625c0-2.084-.578-2.72-1.86-4.136h-.003c-.726-.8-1.66-1.83-2.828-3.437a11.119 11.119 0 0 1-2.125-6.555c0-1.502.299-2.94.84-4.252l.011-.025a11.138 11.138 0 0 1 2.387-3.586 11.055 11.055 0 0 1 3.586-2.412 10.944 10.944 0 0 1 4.224-.846c1.49 0 2.917.3 4.222.845a11.086 11.086 0 0 1 3.586 2.413zm1.993 7.863a9.878 9.878 0 0 0-6.053-9.124 9.716 9.716 0 0 0-3.75-.746c-1.331 0-2.599.266-3.749.746h-.002A9.918 9.918 0 0 0 5.95 13.77l-.013.035a9.908 9.908 0 0 0-.741 3.773c0 1.07.17 2.102.48 3.061a9.933 9.933 0 0 0 1.402 2.757c1.121 1.544 2.034 2.55 2.744 3.334l-.001.002c1.381 1.52 2.068 2.28 2.175 4.35h6.056c.106-2.085.78-2.837 2.168-4.382a37.907 37.907 0 0 0 2.7-3.302 9.9 9.9 0 0 0 1.883-5.82zM12.996 40a.623.623 0 0 1-.62-.625c0-.345.277-.625.62-.625h4.01c.342 0 .62.28.62.625a.623.623 0 0 1-.62.625h-4.01z"/>
        <path fill="rgb(0, 145, 218)" d="M22.617 5.267a.618.618 0 0 1-.844.23.627.627 0 0 1-.228-.851l1.203-2.098c.17-.297.548-.4.845-.229.296.17.397.552.227.85l-1.203 2.098zM8.455 4.647a.624.624 0 0 1-.228.85.617.617 0 0 1-.843-.23L6.18 3.169a.625.625 0 0 1 .228-.849.618.618 0 0 1 .844.23l1.202 2.097zM3.045 9.635c.295.171.397.552.227.85a.617.617 0 0 1-.843.23L.345 9.504a.625.625 0 0 1-.229-.85c.17-.297.549-.399.845-.228l2.084 1.21zM27.572 10.715a.618.618 0 0 1-.844-.23.627.627 0 0 1 .227-.85l2.084-1.21a.618.618 0 0 1 .844.229c.17.297.068.68-.227.85l-2.084 1.21z"/>
    </g>
</svg>
