<svg xmlns="http://www.w3.org/2000/svg" width="18" height="18" viewBox="0 0 18 18">
    <g fill="none" fill-rule="evenodd" stroke-width=".5">
        <path fill="#1D1D26" stroke="#1D1D26" d="M13.105 12.742a.376.376 0 0 0-.381.37v3.157H6.21v-1.367a.372.372 0 0 0-.433-.364l-1.746.253c-.49-.015-.89-.405-.89-.884v-2.202a.372.372 0 0 0-.38-.367h-.59c-.188 0-.33-.052-.384-.134-.053-.086-.034-.23.054-.39l1.254-2.317a.376.376 0 0 0 .043-.17V7.33c0-2.165 1.311-4.151 3.34-5.065a5.872 5.872 0 0 1 2.21-.53.374.374 0 0 0 .365-.383A.374.374 0 0 0 8.657 1a6.648 6.648 0 0 0-2.5.598C3.862 2.634 2.381 4.884 2.381 7.331v.899L1.17 10.469c-.215.397-.227.802-.031 1.114.196.311.572.49 1.032.49h.21v1.83c0 .895.753 1.62 1.673 1.62.02 0 .039 0 .058-.004l1.339-.194v1.307c0 .205.168.368.38.368h7.276c.211 0 .38-.163.38-.368v-3.52c0-.204-.17-.37-.382-.37"/>
        <path fill="rgb(0, 145, 218)" fill-rule="nonzero" stroke="rgb(0, 145, 218)" d="M9.5 4.093a3.468 3.468 0 0 0 .903 2.824 3.56 3.56 0 0 1 .958 2.44l-.003 1.426c0 .576.48 1.042 1.072 1.042h1.382c.593 0 1.073-.466 1.073-1.042l.002-1.425c0-.931.31-1.783.903-2.386a3.377 3.377 0 0 0 .988-2.385c-.003-1.949-1.668-3.51-3.67-3.51-1.964 0-3.383 1.454-3.608 3.016zm4.339 7.185h-1.382a.498.498 0 0 1-.508-.495v-.631h2.396v.631a.496.496 0 0 1-.506.495zm1.557-4.69c-.705.713-1.073 1.7-1.073 2.77v.247h-2.396v-.247c0-1.015-.423-2.028-1.127-2.796-.62-.657-.874-1.507-.763-2.385.199-1.315 1.43-2.551 3.074-2.551 1.72 0 3.103 1.344 3.103 2.961 0 .74-.284 1.452-.818 2.001z"/>
    </g>
</svg>
