<svg xmlns="http://www.w3.org/2000/svg" width="32" height="32" viewBox="0 0 32 32">
    <g fill="none" fill-rule="evenodd" stroke="rgb(0, 145, 218)">
        <path fill="rgb(0, 145, 218)" fill-rule="nonzero" stroke-width=".583" d="M19.529 15.267a.37.37 0 0 0 0-.53.364.364 0 0 0-.524 0l-2.682 2.678V8.569a.373.373 0 1 0-.746 0v8.846L12.9 14.738a.37.37 0 0 0-.53 0 .37.37 0 0 0 0 .529l3.318 3.317a.38.38 0 0 0 .529 0l3.312-3.317zm2.629 2.428c0-.206.164-.37.37-.37.207 0 .376.164.376.37v3.64c0 .207-.17.376-.376.376H9.37a.373.373 0 0 1-.37-.376v-3.64c0-.206.164-.37.37-.37.207 0 .376.164.376.37v3.27h12.412v-3.27z"/>
        <circle cx="16" cy="16" r="15.5"/>
    </g>
</svg>