<svg xmlns="http://www.w3.org/2000/svg" width="19" height="16" viewBox="0 0 19 16">
    <path fill="rgb(0, 145, 218)" fill-rule="nonzero" d="M16.948 3.64h-2.152c-.296 0-.615-.234-.708-.52l-.556-1.704c-.094-.286-.413-.52-.709-.52H6.726c-.296 0-.615.234-.708.52L5.462 3.12c-.094.286-.413.52-.708.52H2.602c-.987 0-1.794.824-1.794 1.83v8.235c0 1.006.807 1.83 1.794 1.83h14.346c.986 0 1.793-.824 1.793-1.83V5.47c0-1.006-.807-1.83-1.793-1.83zm-.628 3.11a.634.634 0 0 1-.627-.64c0-.354.28-.641.627-.641s.628.287.628.64c0 .354-.281.64-.628.64zM9.77 6.147c1.788 0 3.238 1.468 3.238 3.278s-1.45 3.279-3.238 3.279c-1.79 0-3.239-1.468-3.239-3.279 0-1.81 1.45-3.278 3.239-3.278z"/>
</svg>
